<?xml version="1.0" encoding="utf-8"?>
<!-- Generator: Adobe Illustrator 24.3.0, SVG Export Plug-In . SVG Version: 6.00 Build 0)  -->
<svg version="1.1" id="Layer_1" xmlns="http://www.w3.org/2000/svg" xmlns:xlink="http://www.w3.org/1999/xlink" x="0px" y="0px"
	 viewBox="0 0 1920 1080" style="enable-background:new 0 0 1920 1080;" xml:space="preserve">
<style type="text/css">
	.st0{fill:url(#Bg_Shape_2_);}
	.st1{fill:url(#Bg_Shape_3_);}
</style>
<linearGradient id="Bg_Shape_2_" gradientUnits="userSpaceOnUse" x1="2.6128" y1="1079.6309" x2="1.8867" y2="1079.6309" gradientTransform="matrix(-1589.4608 1589.4608 1379.95 1379.95 -1486602 -1491700.375)">
	<stop  offset="0" style="stop-color:#6156F9"/>
	<stop  offset="1" style="stop-color:#1A129F"/>
</linearGradient>
<path id="Bg_Shape_1_" class="st0" d="M-1337.4,1425.3c0,0-52.5-49.9-138.8-138.7c24.4-144.9,159.5-253.6,616.8-153.4
	C-3.2,1320.8,19.3,262,652.2,639s1010.2-184.5,1291.9,399.5C1925.7,1061.3,117.3,2872,117.3,2872l-463.8-459.1l-143.2-144.8
	l-410.9-409.3l-273.1-269.8L-1337.4,1425.3z"/>
<linearGradient id="Bg_Shape_3_" gradientUnits="userSpaceOnUse" x1="2.3993" y1="1080.11" x2="1.7399" y2="1080.11" gradientTransform="matrix(-1286.312 934.9214 784.1786 1078.9125 -843775.6875 -1165925.25)">
	<stop  offset="0" style="stop-color:#6156F9"/>
	<stop  offset="1" style="stop-color:#1A129F"/>
</linearGradient>
<path id="Bg_Shape" class="st1" d="M-30.4,1087.7c0,0-27.4-35.7-71.6-98.5c31.1-88,127.5-143.7,402.6-41.2
	c515.1,192,645-464.7,999.7-174.5s652.1-25.9,764.4,362.1c-14,12.6-1343.4,980-1343.4,980l-239.9-326.4l-73.7-102.7l-212.2-290.8
	L54.1,1203.9L-30.4,1087.7z"/>
</svg>
